<?xml version="1.0" encoding="UTF-8"?>
<!DOCTYPE svg PUBLIC "-//W3C//DTD SVG 1.1//EN" "http://www.w3.org/Graphics/SVG/1.1/DTD/svg11.dtd">
<svg xmlns="http://www.w3.org/2000/svg" version="1.1" width="699px" height="699px" style="shape-rendering:geometricPrecision; text-rendering:geometricPrecision; image-rendering:optimizeQuality; fill-rule:evenodd; clip-rule:evenodd" xmlns:xlink="http://www.w3.org/1999/xlink">
<g><path style="opacity:1" fill="#ac05b4" d="M 394.5,170.5 C 393.5,170.833 392.833,171.5 392.5,172.5C 391.833,172.5 391.5,172.833 391.5,173.5C 390.5,173.833 389.833,174.5 389.5,175.5C 388.5,175.833 387.833,176.5 387.5,177.5C 386.094,177.973 385.427,178.973 385.5,180.5C 384.508,180.328 383.842,180.662 383.5,181.5C 382.833,181.5 382.5,181.833 382.5,182.5C 377.071,186.752 371.738,191.252 366.5,196C 361.738,198.593 357.738,202.093 354.5,206.5C 352.5,207.833 350.5,209.167 348.5,210.5C 309.733,171.233 270.733,132.066 231.5,93C 225.406,89.5739 221.072,84.7406 218.5,78.5C 217.448,78.6495 216.448,78.4828 215.5,78C 213.584,75.91 211.584,74.0767 209.5,72.5C 260.255,23.9869 320.589,6.15361 390.5,19C 427.843,27.3806 460.176,44.8806 487.5,71.5C 488.631,73.0745 488.798,74.7412 488,76.5C 456.578,107.755 425.411,139.089 394.5,170.5 Z"/></g>
<g><path style="opacity:1" fill="#c706c5" d="M 209.5,72.5 C 211.584,74.0767 213.584,75.91 215.5,78C 216.448,78.4828 217.448,78.6495 218.5,78.5C 221.072,84.7406 225.406,89.5739 231.5,93C 270.733,132.066 309.733,171.233 348.5,210.5C 348.649,211.552 348.483,212.552 348,213.5C 346.271,213.974 345.105,214.974 344.5,216.5C 319.584,242.417 294.25,268.084 268.5,293.5C 258.677,303.451 249.01,313.617 239.5,324C 230.317,332.019 221.317,340.185 212.5,348.5C 211.508,348.328 210.842,348.662 210.5,349.5C 209.325,349.719 208.325,349.386 207.5,348.5C 167.164,306.998 126.331,265.998 85,225.5C 83.331,223.831 82.4977,221.831 82.5,219.5C 80.8008,219.66 79.1341,219.494 77.5,219C 77.8333,218.667 78.1667,218.333 78.5,218C 77.4404,216.702 76.2737,215.535 75,214.5C 72.5973,216.316 70.0973,216.649 67.5,215.5C 114.22,167.114 161.553,119.447 209.5,72.5 Z"/></g>
<g><path style="opacity:1" fill="#994bf5" d="M 628.5,211.5 C 627.189,214.133 625.689,214.133 624,211.5C 623.667,212.833 623.333,214.167 623,215.5C 577.873,260.225 533.373,305.225 489.5,350.5C 488.778,349.449 487.778,348.782 486.5,348.5C 485.817,346.824 484.483,346.157 482.5,346.5C 482.5,345.167 482.5,343.833 482.5,342.5C 481.022,342.762 479.689,342.429 478.5,341.5C 473.751,337.422 469.751,332.755 466.5,327.5C 464.063,325.208 461.396,323.208 458.5,321.5C 456.671,319.844 455.337,317.844 454.5,315.5C 449.783,311.487 445.116,307.487 440.5,303.5C 435.854,296.187 429.854,290.187 422.5,285.5C 419.367,279.362 414.7,275.028 408.5,272.5C 405.465,266.192 400.799,261.192 394.5,257.5C 393.669,254.328 391.669,252.662 388.5,252.5C 388.617,250.516 387.95,248.85 386.5,247.5C 382.035,243.017 377.368,239.017 372.5,235.5C 370.979,231.966 368.646,228.966 365.5,226.5C 363.024,225.191 361.024,223.358 359.5,221C 358.552,220.517 357.552,220.351 356.5,220.5C 356.316,217.663 354.982,215.663 352.5,214.5C 352.586,213.504 352.252,212.671 351.5,212C 353.607,210.736 354.607,208.903 354.5,206.5C 357.738,202.093 361.738,198.593 366.5,196C 371.738,191.252 377.071,186.752 382.5,182.5C 383.167,182.5 383.5,182.167 383.5,181.5C 384.492,181.672 385.158,181.338 385.5,180.5C 386.391,179.89 387.391,179.557 388.5,179.5C 390.678,178.343 392.678,177.01 394.5,175.5C 395.167,175.5 395.5,175.167 395.5,174.5C 399.251,173.588 402.584,171.922 405.5,169.5C 478.656,140.388 546.989,148.888 610.5,195C 616.722,200.394 622.722,205.894 628.5,211.5 Z"/></g>
<g><path style="opacity:0.004" fill="#fafafa" d="M 405.5,169.5 C 402.584,171.922 399.251,173.588 395.5,174.5C 394.833,174.5 394.5,174.833 394.5,175.5C 392.678,177.01 390.678,178.343 388.5,179.5C 388.672,178.508 388.338,177.842 387.5,177.5C 387.833,176.5 388.5,175.833 389.5,175.5C 391.203,176.66 391.869,175.993 391.5,173.5C 392.167,173.5 392.5,173.167 392.5,172.5C 392.833,171.5 393.5,170.833 394.5,170.5C 395.833,170.5 397.167,170.5 398.5,170.5C 398.281,169.325 398.614,168.325 399.5,167.5C 401.173,169.086 403.173,169.753 405.5,169.5 Z"/></g>
<g><path style="opacity:1" fill="#fd01f9" d="M 372.5,235.5 C 377.368,239.017 382.035,243.017 386.5,247.5C 387.95,248.85 388.617,250.516 388.5,252.5C 391.669,252.662 393.669,254.328 394.5,257.5C 400.799,261.192 405.465,266.192 408.5,272.5C 414.7,275.028 419.367,279.362 422.5,285.5C 429.854,290.187 435.854,296.187 440.5,303.5C 445.116,307.487 449.783,311.487 454.5,315.5C 455.337,317.844 456.671,319.844 458.5,321.5C 461.396,323.208 464.063,325.208 466.5,327.5C 469.751,332.755 473.751,337.422 478.5,341.5C 479.689,342.429 481.022,342.762 482.5,342.5C 482.5,343.833 482.5,345.167 482.5,346.5C 484.483,346.157 485.817,346.824 486.5,348.5C 486.66,350.199 486.494,351.866 486,353.5C 442.025,398.308 397.525,442.641 352.5,486.5C 352.167,486.5 351.833,486.5 351.5,486.5C 351.333,396.499 351.5,306.499 352,216.5C 357.551,223.05 362.717,229.883 367.5,237C 369.189,236.866 370.856,236.366 372.5,235.5 Z"/></g>
<g><path style="opacity:1" fill="#994af5" d="M 346.5,486.5 C 340.909,479.905 334.909,473.572 328.5,467.5C 327.311,466.571 325.978,466.238 324.5,466.5C 324.762,465.022 324.429,463.689 323.5,462.5C 319.833,458.833 316.167,455.167 312.5,451.5C 311.311,450.571 309.978,450.238 308.5,450.5C 307.782,446.758 305.782,443.758 302.5,441.5C 301.311,440.571 299.978,440.238 298.5,440.5C 298.719,439.325 298.386,438.325 297.5,437.5C 269.807,408.807 241.807,380.474 213.5,352.5C 212.571,351.311 212.238,349.978 212.5,348.5C 221.317,340.185 230.317,332.019 239.5,324C 249.01,313.617 258.677,303.451 268.5,293.5C 294.25,268.084 319.584,242.417 344.5,216.5C 345.822,216.67 346.989,216.337 348,215.5C 348.167,260.667 348.333,305.833 348.5,351C 348.5,396.505 347.833,441.672 346.5,486.5 Z"/></g>
<g><path style="opacity:1" fill="#8240d4" d="M 628.5,211.5 C 636.26,218.593 642.927,226.593 648.5,235.5C 647.305,235.866 646.639,236.699 646.5,238C 650.558,245.351 654.891,252.517 659.5,259.5C 661.219,260.789 662.553,260.455 663.5,258.5C 663.5,258.833 663.5,259.167 663.5,259.5C 663.567,261.401 663.233,263.234 662.5,265C 664.282,266.678 664.615,268.511 663.5,270.5C 662.096,269.001 661.43,269.334 661.5,271.5C 663.121,275.183 664.455,275.183 665.5,271.5C 666.284,274.049 667.451,276.382 669,278.5C 671.407,286.965 674.074,295.299 677,303.5C 677.852,302.429 678.685,301.429 679.5,300.5C 680.167,302.167 680.833,303.833 681.5,305.5C 679.124,306.512 678.124,308.345 678.5,311C 678.993,313.059 679.66,315.059 680.5,317C 679.113,323.663 677.779,329.663 676.5,335C 676.833,336.833 677.167,338.667 677.5,340.5C 678.153,336.765 678.986,333.099 680,329.5C 680.241,332.289 680.908,334.956 682,337.5C 682.278,349.187 682.778,360.854 683.5,372.5C 682.5,372.5 681.5,372.5 680.5,372.5C 680.748,381.914 679.415,391.08 676.5,400C 676.497,402.484 677.163,404.651 678.5,406.5C 678.167,407.833 677.833,409.167 677.5,410.5C 676.835,408.631 676.169,406.631 675.5,404.5C 672.893,410.321 670.893,416.321 669.5,422.5C 667.236,427.779 664.902,432.946 662.5,438C 662.808,439.459 663.475,440.626 664.5,441.5C 652.584,464.087 637.251,484.087 618.5,501.5C 617.522,501.189 616.855,500.522 616.5,499.5C 619.538,496.797 622.205,493.797 624.5,490.5C 617.873,482.204 610.873,474.204 603.5,466.5C 597.742,462.229 592.742,457.062 588.5,451C 582.073,446.861 576.739,441.527 572.5,435C 566.057,431.058 560.723,425.891 556.5,419.5C 554.766,417.766 552.766,416.432 550.5,415.5C 545.493,408.493 539.493,402.493 532.5,397.5C 528.16,391.16 522.826,385.826 516.5,381.5C 508.734,371.903 500.234,363.236 491,355.5C 489.991,353.975 489.491,352.308 489.5,350.5C 533.373,305.225 577.873,260.225 623,215.5C 623.333,214.167 623.667,212.833 624,211.5C 625.689,214.133 627.189,214.133 628.5,211.5 Z"/></g>
<g><path style="opacity:1" fill="#d51bcf" d="M 210.5,349.5 C 210.719,350.675 210.386,351.675 209.5,352.5C 202.432,359.568 195.432,366.568 188.5,373.5C 168.011,394.116 147.678,414.949 127.5,436C 122.728,439.268 118.395,443.102 114.5,447.5C 113.311,448.429 111.978,448.762 110.5,448.5C 110.762,449.978 110.429,451.311 109.5,452.5C 98.2973,463.777 86.964,475.111 75.5,486.5C 75.0358,488.975 74.0358,490.975 72.5,492.5C 24.1713,443.404 5.33797,384.404 16,315.5C 23.4477,276.932 40.6144,243.599 67.5,215.5C 70.0973,216.649 72.5973,216.316 75,214.5C 76.2737,215.535 77.4404,216.702 78.5,218C 78.1667,218.333 77.8333,218.667 77.5,219C 79.1341,219.494 80.8008,219.66 82.5,219.5C 82.4977,221.831 83.331,223.831 85,225.5C 126.331,265.998 167.164,306.998 207.5,348.5C 208.325,349.386 209.325,349.719 210.5,349.5 Z"/></g>
<g><path style="opacity:1" fill="#e912f7" d="M 352.5,214.5 C 354.982,215.663 356.316,217.663 356.5,220.5C 357.552,220.351 358.552,220.517 359.5,221C 361.024,223.358 363.024,225.191 365.5,226.5C 368.646,228.966 370.979,231.966 372.5,235.5C 370.856,236.366 369.189,236.866 367.5,237C 362.717,229.883 357.551,223.05 352,216.5C 351.5,306.499 351.333,396.499 351.5,486.5C 350.833,441.335 350.5,396.001 350.5,350.5C 350.5,304.828 351.167,259.495 352.5,214.5 Z"/></g>
<g><path style="opacity:1" fill="#b639f7" d="M 354.5,206.5 C 354.607,208.903 353.607,210.736 351.5,212C 352.252,212.671 352.586,213.504 352.5,214.5C 351.167,259.495 350.5,304.828 350.5,350.5C 350.5,396.001 350.833,441.335 351.5,486.5C 351.833,486.5 352.167,486.5 352.5,486.5C 351.833,488.5 350.5,489.833 348.5,490.5C 348.473,488.801 347.806,487.467 346.5,486.5C 347.833,441.672 348.5,396.505 348.5,351C 348.333,305.833 348.167,260.667 348,215.5C 346.989,216.337 345.822,216.67 344.5,216.5C 345.105,214.974 346.271,213.974 348,213.5C 348.483,212.552 348.649,211.552 348.5,210.5C 350.5,209.167 352.5,207.833 354.5,206.5 Z"/></g>
<g><path style="opacity:0.541" fill="#864fcd" d="M 648.5,235.5 C 654.245,242.651 659.245,250.318 663.5,258.5C 662.553,260.455 661.219,260.789 659.5,259.5C 654.891,252.517 650.558,245.351 646.5,238C 646.639,236.699 647.305,235.866 648.5,235.5 Z"/></g>
<g><path style="opacity:0.976" fill="#8c54d0" d="M 663.5,259.5 C 670.779,272.325 676.112,285.992 679.5,300.5C 678.685,301.429 677.852,302.429 677,303.5C 674.074,295.299 671.407,286.965 669,278.5C 667.451,276.382 666.284,274.049 665.5,271.5C 664.455,275.183 663.121,275.183 661.5,271.5C 661.43,269.334 662.096,269.001 663.5,270.5C 664.615,268.511 664.282,266.678 662.5,265C 663.233,263.234 663.567,261.401 663.5,259.5 Z"/></g>
<g><path style="opacity:1" fill="#782dd1" d="M 486.5,348.5 C 487.778,348.782 488.778,349.449 489.5,350.5C 489.491,352.308 489.991,353.975 491,355.5C 500.234,363.236 508.734,371.903 516.5,381.5C 522.826,385.826 528.16,391.16 532.5,397.5C 539.493,402.493 545.493,408.493 550.5,415.5C 552.766,416.432 554.766,417.766 556.5,419.5C 560.723,425.891 566.057,431.058 572.5,435C 576.739,441.527 582.073,446.861 588.5,451C 592.742,457.062 597.742,462.229 603.5,466.5C 610.873,474.204 617.873,482.204 624.5,490.5C 622.205,493.797 619.538,496.797 616.5,499.5C 616.855,500.522 617.522,501.189 618.5,501.5C 616.5,504.167 614.167,506.5 611.5,508.5C 609.712,508.215 608.045,508.548 606.5,509.5C 598.5,517.5 590.5,525.5 582.5,533.5C 583.243,534.182 583.909,534.849 584.5,535.5C 562.5,558.167 540.167,580.5 517.5,602.5C 516.542,602.047 515.708,601.381 515,600.5C 507.014,608.986 498.848,617.319 490.5,625.5C 491.325,626.386 492.325,626.719 493.5,626.5C 493.167,627.5 492.5,628.167 491.5,628.5C 489.363,627.058 487.03,625.891 484.5,625C 463.875,604.541 443.542,583.875 423.5,563C 418.077,559.581 413.244,555.415 409,550.5C 404.755,544.531 399.922,539.031 394.5,534C 385.777,526.6 377.11,519.267 368.5,512C 363.127,507.106 358.794,501.439 355.5,495C 353.436,494.347 351.769,493.18 350.5,491.5C 349.817,491.863 349.15,492.196 348.5,492.5C 348.5,491.833 348.5,491.167 348.5,490.5C 350.5,489.833 351.833,488.5 352.5,486.5C 397.525,442.641 442.025,398.308 486,353.5C 486.494,351.866 486.66,350.199 486.5,348.5 Z"/></g>
<g><path style="opacity:1" fill="#fd02f9" d="M 212.5,348.5 C 212.238,349.978 212.571,351.311 213.5,352.5C 241.807,380.474 269.807,408.807 297.5,437.5C 298.386,438.325 298.719,439.325 298.5,440.5C 299.978,440.238 301.311,440.571 302.5,441.5C 305.782,443.758 307.782,446.758 308.5,450.5C 309.978,450.238 311.311,450.571 312.5,451.5C 316.167,455.167 319.833,458.833 323.5,462.5C 324.429,463.689 324.762,465.022 324.5,466.5C 325.978,466.238 327.311,466.571 328.5,467.5C 334.909,473.572 340.909,479.905 346.5,486.5C 347.806,487.467 348.473,488.801 348.5,490.5C 348.5,491.167 348.5,491.833 348.5,492.5C 345.06,492.891 342.727,494.724 341.5,498C 330.278,506.739 319.278,515.573 308.5,524.5C 307.508,524.328 306.842,524.662 306.5,525.5C 248.577,554.717 189.577,556.883 129.5,532C 108.113,522.086 89.1134,508.92 72.5,492.5C 74.0358,490.975 75.0358,488.975 75.5,486.5C 86.964,475.111 98.2973,463.777 109.5,452.5C 110.429,451.311 110.762,449.978 110.5,448.5C 111.978,448.762 113.311,448.429 114.5,447.5C 118.395,443.102 122.728,439.268 127.5,436C 147.678,414.949 168.011,394.116 188.5,373.5C 195.432,366.568 202.432,359.568 209.5,352.5C 210.386,351.675 210.719,350.675 210.5,349.5C 210.842,348.662 211.508,348.328 212.5,348.5 Z"/></g>
<g><path style="opacity:0.059" fill="#8952d1" d="M 681.5,305.5 C 682.01,309.884 682.843,314.218 684,318.5C 684.667,340.167 684.667,361.833 684,383.5C 682.634,391.297 680.801,398.964 678.5,406.5C 677.163,404.651 676.497,402.484 676.5,400C 679.415,391.08 680.748,381.914 680.5,372.5C 681.5,372.5 682.5,372.5 683.5,372.5C 682.778,360.854 682.278,349.187 682,337.5C 680.908,334.956 680.241,332.289 680,329.5C 678.986,333.099 678.153,336.765 677.5,340.5C 677.167,338.667 676.833,336.833 676.5,335C 677.779,329.663 679.113,323.663 680.5,317C 679.66,315.059 678.993,313.059 678.5,311C 678.124,308.345 679.124,306.512 681.5,305.5 Z"/></g>
<g><path style="opacity:0.864" fill="#8a54cd" d="M 677.5,410.5 C 674.142,421.24 669.809,431.573 664.5,441.5C 663.475,440.626 662.808,439.459 662.5,438C 664.902,432.946 667.236,427.779 669.5,422.5C 670.893,416.321 672.893,410.321 675.5,404.5C 676.169,406.631 676.835,408.631 677.5,410.5 Z"/></g>
<g><path style="opacity:1" fill="#6022aa" d="M 491.5,628.5 C 480.375,637.442 469.041,646.275 457.5,655C 448.58,660.627 439.246,665.46 429.5,669.5C 424.768,669.378 420.102,669.878 415.5,671C 411.398,673.045 407.065,674.545 402.5,675.5C 401.167,676.167 399.833,676.833 398.5,677.5C 399.127,678.417 399.461,679.417 399.5,680.5C 328.002,696.259 265.502,679.593 212,630.5C 211.362,629.391 210.862,628.225 210.5,627C 210.257,624.815 210.757,622.648 212,620.5C 244.225,589.109 275.725,557.443 306.5,525.5C 307.492,525.672 308.158,525.338 308.5,524.5C 319.278,515.573 330.278,506.739 341.5,498C 342.727,494.724 345.06,492.891 348.5,492.5C 349.15,492.196 349.817,491.863 350.5,491.5C 351.769,493.18 353.436,494.347 355.5,495C 358.794,501.439 363.127,507.106 368.5,512C 377.11,519.267 385.777,526.6 394.5,534C 399.922,539.031 404.755,544.531 409,550.5C 413.244,555.415 418.077,559.581 423.5,563C 443.542,583.875 463.875,604.541 484.5,625C 487.03,625.891 489.363,627.058 491.5,628.5 Z"/></g>
<g><path style="opacity:0.733" fill="#7d41c8" d="M 611.5,508.5 C 602.833,517.833 593.833,526.833 584.5,535.5C 583.909,534.849 583.243,534.182 582.5,533.5C 590.5,525.5 598.5,517.5 606.5,509.5C 608.045,508.548 609.712,508.215 611.5,508.5 Z"/></g>
<g><path style="opacity:0.603" fill="#813fcc" d="M 517.5,602.5 C 509.833,610.833 501.833,618.833 493.5,626.5C 492.325,626.719 491.325,626.386 490.5,625.5C 498.848,617.319 507.014,608.986 515,600.5C 515.708,601.381 516.542,602.047 517.5,602.5 Z"/></g>
<g><path style="opacity:0.718" fill="#6a37a7" d="M 429.5,669.5 C 419.866,673.936 409.866,677.603 399.5,680.5C 399.461,679.417 399.127,678.417 398.5,677.5C 399.833,676.833 401.167,676.167 402.5,675.5C 407.065,674.545 411.398,673.045 415.5,671C 420.102,669.878 424.768,669.378 429.5,669.5 Z"/></g>
</svg>
